<?xml version="1.0" encoding="UTF-8" standalone="no"?>
<!DOCTYPE svg PUBLIC "-//W3C//DTD SVG 1.1//EN"
 "http://www.w3.org/Graphics/SVG/1.1/DTD/svg11.dtd">
<!-- Generated by graphviz version 12.1.2 (20240928.0832)
 -->
<!-- Title: marianne.flyway_schema_history Pages: 1 -->
<svg width="482pt" height="444pt"
 viewBox="0.00 0.00 482.31 444.00" xmlns="http://www.w3.org/2000/svg" xmlns:xlink="http://www.w3.org/1999/xlink">
<g id="graph0" class="graph" transform="scale(1 1) rotate(0) translate(4 440)">
<title>marianne.flyway_schema_history</title>
<polygon fill="white" stroke="none" points="-4,4 -4,-440 478.31,-440 478.31,4 -4,4"/>
<!-- marianne.flyway_schema_history -->
<g id="node1" class="node">
<title>marianne.flyway_schema_history</title>
<polygon fill="#efefef" stroke="none" points="46.2,-354.2 46.2,-389.8 428.11,-389.8 428.11,-354.2 46.2,-354.2"/>
<polygon fill="none" stroke="black" points="46.2,-354.2 46.2,-389.8 428.11,-389.8 428.11,-354.2 46.2,-354.2"/>
<text text-anchor="start" x="53.2" y="-367.6" font-family="Arial Bold" font-size="18.00">marianne.flyway_schema_history</text>
<text text-anchor="start" x="296.62" y="-367.6" font-family="Arial" font-size="14.00">    </text>
<text text-anchor="start" x="327.74" y="-367.6" font-family="Arial" font-size="14.00" fill="#666666">[BASE TABLE]</text>
<polygon fill="none" stroke="black" points="46.2,-323.4 46.2,-354.2 428.11,-354.2 428.11,-323.4 46.2,-323.4"/>
<text text-anchor="start" x="53.2" y="-335.6" font-family="Arial" font-size="14.00">installed_rank </text>
<text text-anchor="start" x="143.48" y="-335.6" font-family="Arial" font-size="14.00" fill="#666666">[integer]</text>
<polygon fill="none" stroke="black" points="46.2,-292.6 46.2,-323.4 428.11,-323.4 428.11,-292.6 46.2,-292.6"/>
<text text-anchor="start" x="53.2" y="-304.8" font-family="Arial" font-size="14.00">version </text>
<text text-anchor="start" x="102.22" y="-304.8" font-family="Arial" font-size="14.00" fill="#666666">[varchar(50)]</text>
<polygon fill="none" stroke="black" points="46.2,-261.8 46.2,-292.6 428.11,-292.6 428.11,-261.8 46.2,-261.8"/>
<text text-anchor="start" x="53.2" y="-274" font-family="Arial" font-size="14.00">description </text>
<text text-anchor="start" x="124.79" y="-274" font-family="Arial" font-size="14.00" fill="#666666">[varchar(200)]</text>
<polygon fill="none" stroke="black" points="46.2,-231 46.2,-261.8 428.11,-261.8 428.11,-231 46.2,-231"/>
<text text-anchor="start" x="53.2" y="-243.2" font-family="Arial" font-size="14.00">type </text>
<text text-anchor="start" x="83.55" y="-243.2" font-family="Arial" font-size="14.00" fill="#666666">[varchar(20)]</text>
<polygon fill="none" stroke="black" points="46.2,-200.2 46.2,-231 428.11,-231 428.11,-200.2 46.2,-200.2"/>
<text text-anchor="start" x="53.2" y="-212.4" font-family="Arial" font-size="14.00">script </text>
<text text-anchor="start" x="90.54" y="-212.4" font-family="Arial" font-size="14.00" fill="#666666">[varchar(1000)]</text>
<polygon fill="none" stroke="black" points="46.2,-169.4 46.2,-200.2 428.11,-200.2 428.11,-169.4 46.2,-169.4"/>
<text text-anchor="start" x="53.2" y="-181.6" font-family="Arial" font-size="14.00">checksum </text>
<text text-anchor="start" x="120.11" y="-181.6" font-family="Arial" font-size="14.00" fill="#666666">[integer]</text>
<polygon fill="none" stroke="black" points="46.2,-138.6 46.2,-169.4 428.11,-169.4 428.11,-138.6 46.2,-138.6"/>
<text text-anchor="start" x="53.2" y="-150.8" font-family="Arial" font-size="14.00">installed_by </text>
<text text-anchor="start" x="131.03" y="-150.8" font-family="Arial" font-size="14.00" fill="#666666">[varchar(100)]</text>
<polygon fill="none" stroke="black" points="46.2,-107.8 46.2,-138.6 428.11,-138.6 428.11,-107.8 46.2,-107.8"/>
<text text-anchor="start" x="53.2" y="-120" font-family="Arial" font-size="14.00">installed_on </text>
<text text-anchor="start" x="131.81" y="-120" font-family="Arial" font-size="14.00" fill="#666666">[timestamp without time zone]</text>
<polygon fill="none" stroke="black" points="46.2,-77 46.2,-107.8 428.11,-107.8 428.11,-77 46.2,-77"/>
<text text-anchor="start" x="53.2" y="-89.2" font-family="Arial" font-size="14.00">execution_time </text>
<text text-anchor="start" x="151.25" y="-89.2" font-family="Arial" font-size="14.00" fill="#666666">[integer]</text>
<polygon fill="none" stroke="black" points="46.2,-46.2 46.2,-77 428.11,-77 428.11,-46.2 46.2,-46.2"/>
<text text-anchor="start" x="53.2" y="-58.4" font-family="Arial" font-size="14.00">success </text>
<text text-anchor="start" x="107.66" y="-58.4" font-family="Arial" font-size="14.00" fill="#666666">[boolean]</text>
<polygon fill="none" stroke="black" stroke-width="3" points="44.7,-44.7 44.7,-391.3 429.61,-391.3 429.61,-44.7 44.7,-44.7"/>
</g>
</g>
</svg>
