<?xml version="1.0" encoding="UTF-8" standalone="no"?>
<!DOCTYPE svg PUBLIC "-//W3C//DTD SVG 1.1//EN"
 "http://www.w3.org/Graphics/SVG/1.1/DTD/svg11.dtd">
<!-- Generated by graphviz version 12.1.2 (20240928.0832)
 -->
<!-- Title: marianne.user_invitations Pages: 1 -->
<svg width="643pt" height="602pt"
 viewBox="0.00 0.00 642.53 602.00" xmlns="http://www.w3.org/2000/svg" xmlns:xlink="http://www.w3.org/1999/xlink">
<g id="graph0" class="graph" transform="scale(1 1) rotate(0) translate(4 598)">
<title>marianne.user_invitations</title>
<polygon fill="white" stroke="none" points="-4,4 -4,-598 638.53,-598 638.53,4 -4,4"/>
<!-- marianne.user_invitations -->
<g id="node1" class="node">
<title>marianne.user_invitations</title>
<polygon fill="#efefef" stroke="none" points="46.2,-512.2 46.2,-547.8 371.14,-547.8 371.14,-512.2 46.2,-512.2"/>
<polygon fill="none" stroke="black" points="46.2,-512.2 46.2,-547.8 371.14,-547.8 371.14,-512.2 46.2,-512.2"/>
<text text-anchor="start" x="53.2" y="-525.6" font-family="Arial Bold" font-size="18.00">marianne.user_invitations</text>
<text text-anchor="start" x="239.65" y="-525.6" font-family="Arial" font-size="14.00">    </text>
<text text-anchor="start" x="270.77" y="-525.6" font-family="Arial" font-size="14.00" fill="#666666">[BASE TABLE]</text>
<polygon fill="none" stroke="black" points="46.2,-481.4 46.2,-512.2 371.14,-512.2 371.14,-481.4 46.2,-481.4"/>
<text text-anchor="start" x="53.2" y="-493.6" font-family="Arial" font-size="14.00">user_id </text>
<text text-anchor="start" x="103.01" y="-493.6" font-family="Arial" font-size="14.00" fill="#666666">[varchar(10)]</text>
<polygon fill="none" stroke="black" points="46.2,-450.6 46.2,-481.4 371.14,-481.4 371.14,-450.6 46.2,-450.6"/>
<text text-anchor="start" x="53.2" y="-462.8" font-family="Arial" font-size="14.00">shop_code </text>
<text text-anchor="start" x="125.59" y="-462.8" font-family="Arial" font-size="14.00" fill="#666666">[character(10)]</text>
<polygon fill="none" stroke="black" points="46.2,-419.8 46.2,-450.6 371.14,-450.6 371.14,-419.8 46.2,-419.8"/>
<text text-anchor="start" x="53.2" y="-432" font-family="Arial" font-size="14.00">invite_code </text>
<text text-anchor="start" x="127.92" y="-432" font-family="Arial" font-size="14.00" fill="#666666">[varchar(64)]</text>
<polygon fill="none" stroke="black" points="46.2,-389 46.2,-419.8 371.14,-419.8 371.14,-389 46.2,-389"/>
<text text-anchor="start" x="53.2" y="-401.2" font-family="Arial" font-size="14.00">contact_code </text>
<text text-anchor="start" x="140.37" y="-401.2" font-family="Arial" font-size="14.00" fill="#666666">[smallint]</text>
<polygon fill="none" stroke="black" points="46.2,-358.2 46.2,-389 371.14,-389 371.14,-358.2 46.2,-358.2"/>
<text text-anchor="start" x="53.2" y="-370.4" font-family="Arial" font-size="14.00">invite_limit_at </text>
<text text-anchor="start" x="141.9" y="-370.4" font-family="Arial" font-size="14.00" fill="#666666">[timestamp without time zone]</text>
<polygon fill="none" stroke="black" points="46.2,-327.4 46.2,-358.2 371.14,-358.2 371.14,-327.4 46.2,-327.4"/>
<text text-anchor="start" x="53.2" y="-339.6" font-family="Arial" font-size="14.00">send_mail_flag </text>
<text text-anchor="start" x="151.26" y="-339.6" font-family="Arial" font-size="14.00" fill="#666666">[varchar(2)]</text>
<polygon fill="none" stroke="black" stroke-width="3" points="44.7,-325.9 44.7,-549.3 372.64,-549.3 372.64,-325.9 44.7,-325.9"/>
</g>
<!-- marianne.users -->
<g id="node2" class="node">
<title>marianne.users</title>
<polygon fill="#efefef" stroke="none" points="74.05,-166.4 74.05,-202 343.29,-202 343.29,-166.4 74.05,-166.4"/>
<polygon fill="none" stroke="black" points="74.05,-166.4 74.05,-202 343.29,-202 343.29,-166.4 74.05,-166.4"/>
<text text-anchor="start" x="92.2" y="-179.8" font-family="Arial Bold" font-size="18.00">marianne.users</text>
<text text-anchor="start" x="200.65" y="-179.8" font-family="Arial" font-size="14.00">    </text>
<text text-anchor="start" x="231.77" y="-179.8" font-family="Arial" font-size="14.00" fill="#666666">[BASE TABLE]</text>
<polygon fill="none" stroke="black" points="74.05,-135.6 74.05,-166.4 343.29,-166.4 343.29,-135.6 74.05,-135.6"/>
<text text-anchor="start" x="81.05" y="-147.8" font-family="Arial" font-size="14.00">user_id </text>
<text text-anchor="start" x="130.86" y="-147.8" font-family="Arial" font-size="14.00" fill="#666666">[varchar(10)]</text>
<polygon fill="none" stroke="black" points="74.05,-104.8 74.05,-135.6 343.29,-135.6 343.29,-104.8 74.05,-104.8"/>
<text text-anchor="start" x="81.05" y="-117" font-family="Arial" font-size="14.00">cognito_user_id </text>
<text text-anchor="start" x="183.79" y="-117" font-family="Arial" font-size="14.00" fill="#666666">[uuid]</text>
<polygon fill="none" stroke="black" points="74.05,-74 74.05,-104.8 343.29,-104.8 343.29,-74 74.05,-74"/>
<text text-anchor="start" x="81.05" y="-86.2" font-family="Arial" font-size="14.00">email </text>
<text text-anchor="start" x="118.4" y="-86.2" font-family="Arial" font-size="14.00" fill="#666666">[varchar(255)]</text>
<polygon fill="none" stroke="black" points="74.05,-43.2 74.05,-74 343.29,-74 343.29,-43.2 74.05,-43.2"/>
<text text-anchor="start" x="81.05" y="-55.4" font-family="Arial" font-size="14.00">created_at </text>
<text text-anchor="start" x="151.1" y="-55.4" font-family="Arial" font-size="14.00" fill="#666666">[timestamp without time zone]</text>
</g>
<!-- marianne.user_invitations&#45;&gt;marianne.users -->
<g id="edge1" class="edge">
<title>marianne.user_invitations:user_id&#45;&gt;marianne.users:user_id</title>
<path fill="none" stroke="black" d="M382.3,-494.59C446.51,-465.14 417.77,-151 344.29,-151"/>
<polygon fill="black" stroke="black" points="382.24,-494.6 371.51,-492.33 377.03,-495.74 372.79,-496.66 372.79,-496.66 372.79,-496.66 377.03,-495.74 373.42,-501.13 382.24,-494.6"/>
<text text-anchor="start" x="379.14" y="-506.8" font-family="Arial" font-size="10.00">FOREIGN KEY (user_id) REFERENCES users(user_id)</text>
</g>
</g>
</svg>
