<?xml version="1.0" encoding="UTF-8" standalone="no"?>
<!DOCTYPE svg PUBLIC "-//W3C//DTD SVG 1.1//EN"
 "http://www.w3.org/Graphics/SVG/1.1/DTD/svg11.dtd">
<!-- Generated by graphviz version 12.1.2 (20240928.0832)
 -->
<!-- Title: marianne.shop_contact_users Pages: 1 -->
<svg width="492pt" height="510pt"
 viewBox="0.00 0.00 492.05 509.60" xmlns="http://www.w3.org/2000/svg" xmlns:xlink="http://www.w3.org/1999/xlink">
<g id="graph0" class="graph" transform="scale(1 1) rotate(0) translate(4 505.6)">
<title>marianne.shop_contact_users</title>
<polygon fill="white" stroke="none" points="-4,4 -4,-505.6 488.05,-505.6 488.05,4 -4,4"/>
<!-- marianne.shop_contact_users -->
<g id="node1" class="node">
<title>marianne.shop_contact_users</title>
<polygon fill="#efefef" stroke="none" points="86.93,-419.8 86.93,-455.4 437.85,-455.4 437.85,-419.8 86.93,-419.8"/>
<polygon fill="none" stroke="black" points="86.93,-419.8 86.93,-455.4 437.85,-455.4 437.85,-419.8 86.93,-419.8"/>
<text text-anchor="start" x="93.93" y="-433.2" font-family="Arial Bold" font-size="18.00">marianne.shop_contact_users</text>
<text text-anchor="start" x="306.36" y="-433.2" font-family="Arial" font-size="14.00">    </text>
<text text-anchor="start" x="337.48" y="-433.2" font-family="Arial" font-size="14.00" fill="#666666">[BASE TABLE]</text>
<polygon fill="none" stroke="black" points="86.93,-389 86.93,-419.8 437.85,-419.8 437.85,-389 86.93,-389"/>
<text text-anchor="start" x="93.93" y="-401.2" font-family="Arial" font-size="14.00">shop_code </text>
<text text-anchor="start" x="166.33" y="-401.2" font-family="Arial" font-size="14.00" fill="#666666">[character(10)]</text>
<polygon fill="none" stroke="black" points="86.93,-358.2 86.93,-389 437.85,-389 437.85,-358.2 86.93,-358.2"/>
<text text-anchor="start" x="93.93" y="-370.4" font-family="Arial" font-size="14.00">contact_code </text>
<text text-anchor="start" x="181.1" y="-370.4" font-family="Arial" font-size="14.00" fill="#666666">[smallint]</text>
<polygon fill="none" stroke="black" points="86.93,-327.4 86.93,-358.2 437.85,-358.2 437.85,-327.4 86.93,-327.4"/>
<text text-anchor="start" x="93.93" y="-339.6" font-family="Arial" font-size="14.00">user_id </text>
<text text-anchor="start" x="143.74" y="-339.6" font-family="Arial" font-size="14.00" fill="#666666">[varchar(20)]</text>
<polygon fill="none" stroke="black" stroke-width="3" points="85.43,-325.9 85.43,-456.9 439.35,-456.9 439.35,-325.9 85.43,-325.9"/>
</g>
<!-- marianne.users -->
<g id="node2" class="node">
<title>marianne.users</title>
<polygon fill="#efefef" stroke="none" points="127.78,-166.4 127.78,-202 397.01,-202 397.01,-166.4 127.78,-166.4"/>
<polygon fill="none" stroke="black" points="127.78,-166.4 127.78,-202 397.01,-202 397.01,-166.4 127.78,-166.4"/>
<text text-anchor="start" x="145.92" y="-179.8" font-family="Arial Bold" font-size="18.00">marianne.users</text>
<text text-anchor="start" x="254.38" y="-179.8" font-family="Arial" font-size="14.00">    </text>
<text text-anchor="start" x="285.49" y="-179.8" font-family="Arial" font-size="14.00" fill="#666666">[BASE TABLE]</text>
<polygon fill="none" stroke="black" points="127.78,-135.6 127.78,-166.4 397.01,-166.4 397.01,-135.6 127.78,-135.6"/>
<text text-anchor="start" x="134.78" y="-147.8" font-family="Arial" font-size="14.00">user_id </text>
<text text-anchor="start" x="184.58" y="-147.8" font-family="Arial" font-size="14.00" fill="#666666">[varchar(10)]</text>
<polygon fill="none" stroke="black" points="127.78,-104.8 127.78,-135.6 397.01,-135.6 397.01,-104.8 127.78,-104.8"/>
<text text-anchor="start" x="134.78" y="-117" font-family="Arial" font-size="14.00">cognito_user_id </text>
<text text-anchor="start" x="237.51" y="-117" font-family="Arial" font-size="14.00" fill="#666666">[uuid]</text>
<polygon fill="none" stroke="black" points="127.78,-74 127.78,-104.8 397.01,-104.8 397.01,-74 127.78,-74"/>
<text text-anchor="start" x="134.78" y="-86.2" font-family="Arial" font-size="14.00">email </text>
<text text-anchor="start" x="172.12" y="-86.2" font-family="Arial" font-size="14.00" fill="#666666">[varchar(255)]</text>
<polygon fill="none" stroke="black" points="127.78,-43.2 127.78,-74 397.01,-74 397.01,-43.2 127.78,-43.2"/>
<text text-anchor="start" x="134.78" y="-55.4" font-family="Arial" font-size="14.00">created_at </text>
<text text-anchor="start" x="204.82" y="-55.4" font-family="Arial" font-size="14.00" fill="#666666">[timestamp without time zone]</text>
</g>
<!-- marianne.shop_contact_users&#45;&gt;marianne.users -->
<g id="edge1" class="edge">
<title>marianne.shop_contact_users:user_id&#45;&gt;marianne.users:user_id</title>
<path fill="none" stroke="black" d="M263.2,-316.31C272.75,-261.43 364.16,-302.66 397.01,-245.2 417.79,-208.85 439.88,-151 398.01,-151"/>
<polygon fill="black" stroke="black" points="263.22,-316.1 257.93,-325.71 262.79,-321.42 262.45,-325.73 262.45,-325.73 262.45,-325.73 262.79,-321.42 266.91,-326.43 263.22,-316.1"/>
<text text-anchor="start" x="7" y="-336.4" font-family="Arial" font-size="10.00">FOREIGN KEY (user_id) REFERENCES users(user_id)</text>
</g>
</g>
</svg>
