<?xml version="1.0" encoding="UTF-8" standalone="no"?>
<!DOCTYPE svg PUBLIC "-//W3C//DTD SVG 1.1//EN"
 "http://www.w3.org/Graphics/SVG/1.1/DTD/svg11.dtd">
<!-- Generated by graphviz version 12.1.2 (20240928.0832)
 -->
<!-- Title: marianne.users Pages: 1 -->
<svg width="1672pt" height="1002pt"
 viewBox="0.00 0.00 1671.85 1002.40" xmlns="http://www.w3.org/2000/svg" xmlns:xlink="http://www.w3.org/1999/xlink">
<g id="graph0" class="graph" transform="scale(1 1) rotate(0) translate(4 998.4)">
<title>marianne.users</title>
<polygon fill="white" stroke="none" points="-4,4 -4,-998.4 1667.85,-998.4 1667.85,4 -4,4"/>
<!-- marianne.users -->
<g id="node1" class="node">
<title>marianne.users</title>
<polygon fill="#efefef" stroke="none" points="666.56,-169.4 666.56,-205 935.79,-205 935.79,-169.4 666.56,-169.4"/>
<polygon fill="none" stroke="black" points="666.56,-169.4 666.56,-205 935.79,-205 935.79,-169.4 666.56,-169.4"/>
<text text-anchor="start" x="684.7" y="-182.8" font-family="Arial Bold" font-size="18.00">marianne.users</text>
<text text-anchor="start" x="793.16" y="-182.8" font-family="Arial" font-size="14.00">    </text>
<text text-anchor="start" x="824.28" y="-182.8" font-family="Arial" font-size="14.00" fill="#666666">[BASE TABLE]</text>
<polygon fill="none" stroke="black" points="666.56,-138.6 666.56,-169.4 935.79,-169.4 935.79,-138.6 666.56,-138.6"/>
<text text-anchor="start" x="673.56" y="-150.8" font-family="Arial" font-size="14.00">user_id </text>
<text text-anchor="start" x="723.37" y="-150.8" font-family="Arial" font-size="14.00" fill="#666666">[varchar(10)]</text>
<polygon fill="none" stroke="black" points="666.56,-107.8 666.56,-138.6 935.79,-138.6 935.79,-107.8 666.56,-107.8"/>
<text text-anchor="start" x="673.56" y="-120" font-family="Arial" font-size="14.00">cognito_user_id </text>
<text text-anchor="start" x="776.3" y="-120" font-family="Arial" font-size="14.00" fill="#666666">[uuid]</text>
<polygon fill="none" stroke="black" points="666.56,-77 666.56,-107.8 935.79,-107.8 935.79,-77 666.56,-77"/>
<text text-anchor="start" x="673.56" y="-89.2" font-family="Arial" font-size="14.00">email </text>
<text text-anchor="start" x="710.9" y="-89.2" font-family="Arial" font-size="14.00" fill="#666666">[varchar(255)]</text>
<polygon fill="none" stroke="black" points="666.56,-46.2 666.56,-77 935.79,-77 935.79,-46.2 666.56,-46.2"/>
<text text-anchor="start" x="673.56" y="-58.4" font-family="Arial" font-size="14.00">created_at </text>
<text text-anchor="start" x="743.61" y="-58.4" font-family="Arial" font-size="14.00" fill="#666666">[timestamp without time zone]</text>
<polygon fill="none" stroke="black" stroke-width="3" points="665.06,-44.7 665.06,-206.5 937.29,-206.5 937.29,-44.7 665.06,-44.7"/>
</g>
<!-- marianne.user_shops -->
<g id="node2" class="node">
<title>marianne.user_shops</title>
<polygon fill="#efefef" stroke="none" points="43.2,-669.2 43.2,-704.8 333.15,-704.8 333.15,-669.2 43.2,-669.2"/>
<polygon fill="none" stroke="black" points="43.2,-669.2 43.2,-704.8 333.15,-704.8 333.15,-669.2 43.2,-669.2"/>
<text text-anchor="start" x="50.2" y="-682.6" font-family="Arial Bold" font-size="18.00">marianne.user_shops</text>
<text text-anchor="start" x="201.66" y="-682.6" font-family="Arial" font-size="14.00">    </text>
<text text-anchor="start" x="232.78" y="-682.6" font-family="Arial" font-size="14.00" fill="#666666">[BASE TABLE]</text>
<polygon fill="none" stroke="black" points="43.2,-638.4 43.2,-669.2 333.15,-669.2 333.15,-638.4 43.2,-638.4"/>
<text text-anchor="start" x="50.2" y="-650.6" font-family="Arial" font-size="14.00">user_id </text>
<text text-anchor="start" x="100.01" y="-650.6" font-family="Arial" font-size="14.00" fill="#666666">[varchar(10)]</text>
<polygon fill="none" stroke="black" points="43.2,-607.6 43.2,-638.4 333.15,-638.4 333.15,-607.6 43.2,-607.6"/>
<text text-anchor="start" x="50.2" y="-619.8" font-family="Arial" font-size="14.00">shop_code </text>
<text text-anchor="start" x="122.59" y="-619.8" font-family="Arial" font-size="14.00" fill="#666666">[character(10)]</text>
<polygon fill="none" stroke="black" points="43.2,-576.8 43.2,-607.6 333.15,-607.6 333.15,-576.8 43.2,-576.8"/>
<text text-anchor="start" x="50.2" y="-589" font-family="Arial" font-size="14.00">created_at </text>
<text text-anchor="start" x="120.25" y="-589" font-family="Arial" font-size="14.00" fill="#666666">[timestamp without time zone]</text>
</g>
<!-- marianne.user_shops&#45;&gt;marianne.users -->
<g id="edge1" class="edge">
<title>marianne.user_shops:user_id&#45;&gt;marianne.users:user_id</title>
<path fill="none" stroke="black" d="M344.28,-652.03C409.49,-627.29 338.72,-350.55 385.18,-287.2 466.77,-175.95 527.6,-154 665.56,-154"/>
<polygon fill="black" stroke="black" points="344.33,-652.02 333.71,-649.31 339.08,-652.94 334.81,-653.68 334.81,-653.68 334.81,-653.68 339.08,-652.94 335.26,-658.18 344.33,-652.02"/>
<text text-anchor="start" x="209.95" y="-637.8" font-family="Arial" font-size="10.00">FOREIGN KEY (user_id) REFERENCES users(user_id)</text>
</g>
<!-- marianne.csv_uploads -->
<g id="node3" class="node">
<title>marianne.csv_uploads</title>
<polygon fill="#efefef" stroke="none" points="437.7,-915.6 437.7,-951.2 736.65,-951.2 736.65,-915.6 437.7,-915.6"/>
<polygon fill="none" stroke="black" points="437.7,-915.6 437.7,-951.2 736.65,-951.2 736.65,-915.6 437.7,-915.6"/>
<text text-anchor="start" x="444.7" y="-929" font-family="Arial Bold" font-size="18.00">marianne.csv_uploads</text>
<text text-anchor="start" x="605.16" y="-929" font-family="Arial" font-size="14.00">    </text>
<text text-anchor="start" x="636.27" y="-929" font-family="Arial" font-size="14.00" fill="#666666">[BASE TABLE]</text>
<polygon fill="none" stroke="black" points="437.7,-884.8 437.7,-915.6 736.65,-915.6 736.65,-884.8 437.7,-884.8"/>
<text text-anchor="start" x="444.7" y="-897" font-family="Arial" font-size="14.00">id </text>
<text text-anchor="start" x="459.49" y="-897" font-family="Arial" font-size="14.00" fill="#666666">[uuid]</text>
<polygon fill="none" stroke="black" points="437.7,-854 437.7,-884.8 736.65,-884.8 736.65,-854 437.7,-854"/>
<text text-anchor="start" x="444.7" y="-866.2" font-family="Arial" font-size="14.00">user_id </text>
<text text-anchor="start" x="494.51" y="-866.2" font-family="Arial" font-size="14.00" fill="#666666">[varchar(10)]</text>
<polygon fill="none" stroke="black" points="437.7,-823.2 437.7,-854 736.65,-854 736.65,-823.2 437.7,-823.2"/>
<text text-anchor="start" x="444.7" y="-835.4" font-family="Arial" font-size="14.00">contact_user_name </text>
<text text-anchor="start" x="571.56" y="-835.4" font-family="Arial" font-size="14.00" fill="#666666">[varchar(50)]</text>
<polygon fill="none" stroke="black" points="437.7,-792.4 437.7,-823.2 736.65,-823.2 736.65,-792.4 437.7,-792.4"/>
<text text-anchor="start" x="444.7" y="-804.6" font-family="Arial" font-size="14.00">contact_user_email </text>
<text text-anchor="start" x="569.99" y="-804.6" font-family="Arial" font-size="14.00" fill="#666666">[varchar(100)]</text>
<polygon fill="none" stroke="black" points="437.7,-761.6 437.7,-792.4 736.65,-792.4 736.65,-761.6 437.7,-761.6"/>
<text text-anchor="start" x="444.7" y="-773.8" font-family="Arial" font-size="14.00">shop_code </text>
<text text-anchor="start" x="517.1" y="-773.8" font-family="Arial" font-size="14.00" fill="#666666">[varchar(10)]</text>
<polygon fill="none" stroke="black" points="437.7,-730.8 437.7,-761.6 736.65,-761.6 736.65,-730.8 437.7,-730.8"/>
<text text-anchor="start" x="444.7" y="-743" font-family="Arial" font-size="14.00">status </text>
<text text-anchor="start" x="485.95" y="-743" font-family="Arial" font-size="14.00" fill="#666666">[smallint]</text>
<polygon fill="none" stroke="black" points="437.7,-700 437.7,-730.8 736.65,-730.8 736.65,-700 437.7,-700"/>
<text text-anchor="start" x="444.7" y="-712.2" font-family="Arial" font-size="14.00">upload_bucket_name </text>
<text text-anchor="start" x="582.48" y="-712.2" font-family="Arial" font-size="14.00" fill="#666666">[varchar(100)]</text>
<polygon fill="none" stroke="black" points="437.7,-669.2 437.7,-700 736.65,-700 736.65,-669.2 437.7,-669.2"/>
<text text-anchor="start" x="444.7" y="-681.4" font-family="Arial" font-size="14.00">error_bucket_name </text>
<text text-anchor="start" x="569.99" y="-681.4" font-family="Arial" font-size="14.00" fill="#666666">[varchar(100)]</text>
<polygon fill="none" stroke="black" points="437.7,-638.4 437.7,-669.2 736.65,-669.2 736.65,-638.4 437.7,-638.4"/>
<text text-anchor="start" x="444.7" y="-650.6" font-family="Arial" font-size="14.00">upload_file_key </text>
<text text-anchor="start" x="545.89" y="-650.6" font-family="Arial" font-size="14.00" fill="#666666">[varchar(100)]</text>
<polygon fill="none" stroke="black" points="437.7,-607.6 437.7,-638.4 736.65,-638.4 736.65,-607.6 437.7,-607.6"/>
<text text-anchor="start" x="444.7" y="-619.8" font-family="Arial" font-size="14.00">error_file_key </text>
<text text-anchor="start" x="533.41" y="-619.8" font-family="Arial" font-size="14.00" fill="#666666">[varchar(100)]</text>
<polygon fill="none" stroke="black" points="437.7,-576.8 437.7,-607.6 736.65,-607.6 736.65,-576.8 437.7,-576.8"/>
<text text-anchor="start" x="444.7" y="-589" font-family="Arial" font-size="14.00">upload_file_name </text>
<text text-anchor="start" x="559.12" y="-589" font-family="Arial" font-size="14.00" fill="#666666">[varchar(100)]</text>
<polygon fill="none" stroke="black" points="437.7,-546 437.7,-576.8 736.65,-576.8 736.65,-546 437.7,-546"/>
<text text-anchor="start" x="444.7" y="-558.2" font-family="Arial" font-size="14.00">error_file_name </text>
<text text-anchor="start" x="546.64" y="-558.2" font-family="Arial" font-size="14.00" fill="#666666">[varchar(100)]</text>
<polygon fill="none" stroke="black" points="437.7,-515.2 437.7,-546 736.65,-546 736.65,-515.2 437.7,-515.2"/>
<text text-anchor="start" x="444.7" y="-527.4" font-family="Arial" font-size="14.00">upload_type </text>
<text text-anchor="start" x="524.88" y="-527.4" font-family="Arial" font-size="14.00" fill="#666666">[smallint]</text>
<polygon fill="none" stroke="black" points="437.7,-484.4 437.7,-515.2 736.65,-515.2 736.65,-484.4 437.7,-484.4"/>
<text text-anchor="start" x="444.7" y="-496.6" font-family="Arial" font-size="14.00">transaction_amount </text>
<text text-anchor="start" x="571.56" y="-496.6" font-family="Arial" font-size="14.00" fill="#666666">[integer]</text>
<polygon fill="none" stroke="black" points="437.7,-453.6 437.7,-484.4 736.65,-484.4 736.65,-453.6 437.7,-453.6"/>
<text text-anchor="start" x="444.7" y="-465.8" font-family="Arial" font-size="14.00">transaction_count </text>
<text text-anchor="start" x="559.11" y="-465.8" font-family="Arial" font-size="14.00" fill="#666666">[integer]</text>
<polygon fill="none" stroke="black" points="437.7,-422.8 437.7,-453.6 736.65,-453.6 736.65,-422.8 437.7,-422.8"/>
<text text-anchor="start" x="444.7" y="-435" font-family="Arial" font-size="14.00">error_code </text>
<text text-anchor="start" x="516.3" y="-435" font-family="Arial" font-size="14.00" fill="#666666">[smallint]</text>
<polygon fill="none" stroke="black" points="437.7,-392 437.7,-422.8 736.65,-422.8 736.65,-392 437.7,-392"/>
<text text-anchor="start" x="444.7" y="-404.2" font-family="Arial" font-size="14.00">created_at </text>
<text text-anchor="start" x="514.75" y="-404.2" font-family="Arial" font-size="14.00" fill="#666666">[timestamp without time zone]</text>
<polygon fill="none" stroke="black" points="437.7,-361.2 437.7,-392 736.65,-392 736.65,-361.2 437.7,-361.2"/>
<text text-anchor="start" x="444.7" y="-373.4" font-family="Arial" font-size="14.00">updated_at </text>
<text text-anchor="start" x="518.66" y="-373.4" font-family="Arial" font-size="14.00" fill="#666666">[timestamp without time zone]</text>
<polygon fill="none" stroke="black" points="437.7,-330.4 437.7,-361.2 736.65,-361.2 736.65,-330.4 437.7,-330.4"/>
<text text-anchor="start" x="444.7" y="-342.6" font-family="Arial" font-size="14.00">buyer_count </text>
<text text-anchor="start" x="525.65" y="-342.6" font-family="Arial" font-size="14.00" fill="#666666">[integer]</text>
</g>
<!-- marianne.csv_uploads&#45;&gt;marianne.users -->
<g id="edge2" class="edge">
<title>marianne.csv_uploads:user_id&#45;&gt;marianne.users:user_id</title>
<path fill="none" stroke="black" d="M747.09,-865.15C798.96,-815.13 768.62,-339.47 736.65,-287.2 718.37,-257.33 684.96,-280.99 666.56,-251.2 643.86,-214.44 622.36,-154 665.56,-154"/>
<polygon fill="black" stroke="black" points="747.07,-865.16 736.1,-865.16 742.21,-867.35 738.26,-869.13 738.26,-869.13 738.26,-869.13 742.21,-867.35 739.8,-873.37 747.07,-865.16"/>
<text text-anchor="start" x="744.65" y="-879.4" font-family="Arial" font-size="10.00">FOREIGN KEY (user_id) REFERENCES users(user_id)</text>
</g>
<!-- marianne.shop_contact_users -->
<g id="node4" class="node">
<title>marianne.shop_contact_users</title>
<polygon fill="#efefef" stroke="none" points="840.72,-669.2 840.72,-704.8 1191.64,-704.8 1191.64,-669.2 840.72,-669.2"/>
<polygon fill="none" stroke="black" points="840.72,-669.2 840.72,-704.8 1191.64,-704.8 1191.64,-669.2 840.72,-669.2"/>
<text text-anchor="start" x="847.72" y="-682.6" font-family="Arial Bold" font-size="18.00">marianne.shop_contact_users</text>
<text text-anchor="start" x="1060.15" y="-682.6" font-family="Arial" font-size="14.00">    </text>
<text text-anchor="start" x="1091.26" y="-682.6" font-family="Arial" font-size="14.00" fill="#666666">[BASE TABLE]</text>
<polygon fill="none" stroke="black" points="840.72,-638.4 840.72,-669.2 1191.64,-669.2 1191.64,-638.4 840.72,-638.4"/>
<text text-anchor="start" x="847.72" y="-650.6" font-family="Arial" font-size="14.00">shop_code </text>
<text text-anchor="start" x="920.11" y="-650.6" font-family="Arial" font-size="14.00" fill="#666666">[character(10)]</text>
<polygon fill="none" stroke="black" points="840.72,-607.6 840.72,-638.4 1191.64,-638.4 1191.64,-607.6 840.72,-607.6"/>
<text text-anchor="start" x="847.72" y="-619.8" font-family="Arial" font-size="14.00">contact_code </text>
<text text-anchor="start" x="934.89" y="-619.8" font-family="Arial" font-size="14.00" fill="#666666">[smallint]</text>
<polygon fill="none" stroke="black" points="840.72,-576.8 840.72,-607.6 1191.64,-607.6 1191.64,-576.8 840.72,-576.8"/>
<text text-anchor="start" x="847.72" y="-589" font-family="Arial" font-size="14.00">user_id </text>
<text text-anchor="start" x="897.52" y="-589" font-family="Arial" font-size="14.00" fill="#666666">[varchar(20)]</text>
</g>
<!-- marianne.shop_contact_users&#45;&gt;marianne.users -->
<g id="edge3" class="edge">
<title>marianne.shop_contact_users:user_id&#45;&gt;marianne.users:user_id</title>
<path fill="none" stroke="black" d="M829.32,-591.75C658.41,-576.09 1132.57,-154 936.79,-154"/>
<polygon fill="black" stroke="black" points="829.39,-591.76 839.19,-596.68 834.72,-591.99 839.05,-592.17 839.05,-592.17 839.05,-592.17 834.72,-591.99 839.57,-587.69 829.39,-591.76"/>
<text text-anchor="start" x="846.72" y="-602.2" font-family="Arial" font-size="10.00">FOREIGN KEY (user_id) REFERENCES users(user_id)</text>
</g>
<!-- marianne.user_invitations -->
<g id="node5" class="node">
<title>marianne.user_invitations</title>
<polygon fill="#efefef" stroke="none" points="1295.71,-715.4 1295.71,-751 1620.65,-751 1620.65,-715.4 1295.71,-715.4"/>
<polygon fill="none" stroke="black" points="1295.71,-715.4 1295.71,-751 1620.65,-751 1620.65,-715.4 1295.71,-715.4"/>
<text text-anchor="start" x="1302.71" y="-728.8" font-family="Arial Bold" font-size="18.00">marianne.user_invitations</text>
<text text-anchor="start" x="1489.16" y="-728.8" font-family="Arial" font-size="14.00">    </text>
<text text-anchor="start" x="1520.27" y="-728.8" font-family="Arial" font-size="14.00" fill="#666666">[BASE TABLE]</text>
<polygon fill="none" stroke="black" points="1295.71,-684.6 1295.71,-715.4 1620.65,-715.4 1620.65,-684.6 1295.71,-684.6"/>
<text text-anchor="start" x="1302.71" y="-696.8" font-family="Arial" font-size="14.00">user_id </text>
<text text-anchor="start" x="1352.51" y="-696.8" font-family="Arial" font-size="14.00" fill="#666666">[varchar(10)]</text>
<polygon fill="none" stroke="black" points="1295.71,-653.8 1295.71,-684.6 1620.65,-684.6 1620.65,-653.8 1295.71,-653.8"/>
<text text-anchor="start" x="1302.71" y="-666" font-family="Arial" font-size="14.00">shop_code </text>
<text text-anchor="start" x="1375.1" y="-666" font-family="Arial" font-size="14.00" fill="#666666">[character(10)]</text>
<polygon fill="none" stroke="black" points="1295.71,-623 1295.71,-653.8 1620.65,-653.8 1620.65,-623 1295.71,-623"/>
<text text-anchor="start" x="1302.71" y="-635.2" font-family="Arial" font-size="14.00">invite_code </text>
<text text-anchor="start" x="1377.42" y="-635.2" font-family="Arial" font-size="14.00" fill="#666666">[varchar(64)]</text>
<polygon fill="none" stroke="black" points="1295.71,-592.2 1295.71,-623 1620.65,-623 1620.65,-592.2 1295.71,-592.2"/>
<text text-anchor="start" x="1302.71" y="-604.4" font-family="Arial" font-size="14.00">contact_code </text>
<text text-anchor="start" x="1389.88" y="-604.4" font-family="Arial" font-size="14.00" fill="#666666">[smallint]</text>
<polygon fill="none" stroke="black" points="1295.71,-561.4 1295.71,-592.2 1620.65,-592.2 1620.65,-561.4 1295.71,-561.4"/>
<text text-anchor="start" x="1302.71" y="-573.6" font-family="Arial" font-size="14.00">invite_limit_at </text>
<text text-anchor="start" x="1391.41" y="-573.6" font-family="Arial" font-size="14.00" fill="#666666">[timestamp without time zone]</text>
<polygon fill="none" stroke="black" points="1295.71,-530.6 1295.71,-561.4 1620.65,-561.4 1620.65,-530.6 1295.71,-530.6"/>
<text text-anchor="start" x="1302.71" y="-542.8" font-family="Arial" font-size="14.00">send_mail_flag </text>
<text text-anchor="start" x="1400.77" y="-542.8" font-family="Arial" font-size="14.00" fill="#666666">[varchar(2)]</text>
</g>
<!-- marianne.user_invitations&#45;&gt;marianne.users -->
<g id="edge4" class="edge">
<title>marianne.user_invitations:user_id&#45;&gt;marianne.users:user_id</title>
<path fill="none" stroke="black" d="M1284.72,-698.49C1209.65,-673.94 1297.34,-358.33 1244.18,-287.2 1155.04,-167.94 1085.68,-154 936.79,-154"/>
<polygon fill="black" stroke="black" points="1284.49,-698.45 1293.7,-704.4 1289.76,-699.25 1294.04,-699.9 1294.04,-699.9 1294.04,-699.9 1289.76,-699.25 1295.05,-695.5 1284.49,-698.45"/>
<text text-anchor="start" x="1039.31" y="-710" font-family="Arial" font-size="10.00">FOREIGN KEY (user_id) REFERENCES users(user_id)</text>
</g>
</g>
</svg>
