<?xml version="1.0" encoding="UTF-8" standalone="no"?>
<!DOCTYPE svg PUBLIC "-//W3C//DTD SVG 1.1//EN"
 "http://www.w3.org/Graphics/SVG/1.1/DTD/svg11.dtd">
<!-- Generated by graphviz version 12.1.2 (20240928.0832)
 -->
<!-- Title: marianne.user_shops Pages: 1 -->
<svg width="608pt" height="510pt"
 viewBox="0.00 0.00 607.54 509.60" xmlns="http://www.w3.org/2000/svg" xmlns:xlink="http://www.w3.org/1999/xlink">
<g id="graph0" class="graph" transform="scale(1 1) rotate(0) translate(4 505.6)">
<title>marianne.user_shops</title>
<polygon fill="white" stroke="none" points="-4,4 -4,-505.6 603.54,-505.6 603.54,4 -4,4"/>
<!-- marianne.user_shops -->
<g id="node1" class="node">
<title>marianne.user_shops</title>
<polygon fill="#efefef" stroke="none" points="46.2,-419.8 46.2,-455.4 336.15,-455.4 336.15,-419.8 46.2,-419.8"/>
<polygon fill="none" stroke="black" points="46.2,-419.8 46.2,-455.4 336.15,-455.4 336.15,-419.8 46.2,-419.8"/>
<text text-anchor="start" x="53.2" y="-433.2" font-family="Arial Bold" font-size="18.00">marianne.user_shops</text>
<text text-anchor="start" x="204.66" y="-433.2" font-family="Arial" font-size="14.00">    </text>
<text text-anchor="start" x="235.78" y="-433.2" font-family="Arial" font-size="14.00" fill="#666666">[BASE TABLE]</text>
<polygon fill="none" stroke="black" points="46.2,-389 46.2,-419.8 336.15,-419.8 336.15,-389 46.2,-389"/>
<text text-anchor="start" x="53.2" y="-401.2" font-family="Arial" font-size="14.00">user_id </text>
<text text-anchor="start" x="103.01" y="-401.2" font-family="Arial" font-size="14.00" fill="#666666">[varchar(10)]</text>
<polygon fill="none" stroke="black" points="46.2,-358.2 46.2,-389 336.15,-389 336.15,-358.2 46.2,-358.2"/>
<text text-anchor="start" x="53.2" y="-370.4" font-family="Arial" font-size="14.00">shop_code </text>
<text text-anchor="start" x="125.59" y="-370.4" font-family="Arial" font-size="14.00" fill="#666666">[character(10)]</text>
<polygon fill="none" stroke="black" points="46.2,-327.4 46.2,-358.2 336.15,-358.2 336.15,-327.4 46.2,-327.4"/>
<text text-anchor="start" x="53.2" y="-339.6" font-family="Arial" font-size="14.00">created_at </text>
<text text-anchor="start" x="123.25" y="-339.6" font-family="Arial" font-size="14.00" fill="#666666">[timestamp without time zone]</text>
<polygon fill="none" stroke="black" stroke-width="3" points="44.7,-325.9 44.7,-456.9 337.65,-456.9 337.65,-325.9 44.7,-325.9"/>
</g>
<!-- marianne.users -->
<g id="node2" class="node">
<title>marianne.users</title>
<polygon fill="#efefef" stroke="none" points="56.56,-166.4 56.56,-202 325.79,-202 325.79,-166.4 56.56,-166.4"/>
<polygon fill="none" stroke="black" points="56.56,-166.4 56.56,-202 325.79,-202 325.79,-166.4 56.56,-166.4"/>
<text text-anchor="start" x="74.7" y="-179.8" font-family="Arial Bold" font-size="18.00">marianne.users</text>
<text text-anchor="start" x="183.16" y="-179.8" font-family="Arial" font-size="14.00">    </text>
<text text-anchor="start" x="214.28" y="-179.8" font-family="Arial" font-size="14.00" fill="#666666">[BASE TABLE]</text>
<polygon fill="none" stroke="black" points="56.56,-135.6 56.56,-166.4 325.79,-166.4 325.79,-135.6 56.56,-135.6"/>
<text text-anchor="start" x="63.56" y="-147.8" font-family="Arial" font-size="14.00">user_id </text>
<text text-anchor="start" x="113.37" y="-147.8" font-family="Arial" font-size="14.00" fill="#666666">[varchar(10)]</text>
<polygon fill="none" stroke="black" points="56.56,-104.8 56.56,-135.6 325.79,-135.6 325.79,-104.8 56.56,-104.8"/>
<text text-anchor="start" x="63.56" y="-117" font-family="Arial" font-size="14.00">cognito_user_id </text>
<text text-anchor="start" x="166.3" y="-117" font-family="Arial" font-size="14.00" fill="#666666">[uuid]</text>
<polygon fill="none" stroke="black" points="56.56,-74 56.56,-104.8 325.79,-104.8 325.79,-74 56.56,-74"/>
<text text-anchor="start" x="63.56" y="-86.2" font-family="Arial" font-size="14.00">email </text>
<text text-anchor="start" x="100.9" y="-86.2" font-family="Arial" font-size="14.00" fill="#666666">[varchar(255)]</text>
<polygon fill="none" stroke="black" points="56.56,-43.2 56.56,-74 325.79,-74 325.79,-43.2 56.56,-43.2"/>
<text text-anchor="start" x="63.56" y="-55.4" font-family="Arial" font-size="14.00">created_at </text>
<text text-anchor="start" x="133.61" y="-55.4" font-family="Arial" font-size="14.00" fill="#666666">[timestamp without time zone]</text>
</g>
<!-- marianne.user_shops&#45;&gt;marianne.users -->
<g id="edge1" class="edge">
<title>marianne.user_shops:user_id&#45;&gt;marianne.users:user_id</title>
<path fill="none" stroke="black" d="M346.94,-401.55C392.03,-373.71 379.63,-151 326.79,-151"/>
<polygon fill="black" stroke="black" points="347.07,-401.52 336.22,-399.99 341.95,-403 337.79,-404.21 337.79,-404.21 337.79,-404.21 341.95,-403 338.73,-408.63 347.07,-401.52"/>
<text text-anchor="start" x="344.15" y="-414.4" font-family="Arial" font-size="10.00">FOREIGN KEY (user_id) REFERENCES users(user_id)</text>
</g>
</g>
</svg>
