<?xml version="1.0" encoding="UTF-8" standalone="no"?>
<!DOCTYPE svg PUBLIC "-//W3C//DTD SVG 1.1//EN"
 "http://www.w3.org/Graphics/SVG/1.1/DTD/svg11.dtd">
<!-- Generated by graphviz version 12.1.2 (20240928.0832)
 -->
<!-- Title: marianne.shop_csv_exclusion_heading Pages: 1 -->
<svg width="521pt" height="290pt"
 viewBox="0.00 0.00 521.32 290.00" xmlns="http://www.w3.org/2000/svg" xmlns:xlink="http://www.w3.org/1999/xlink">
<g id="graph0" class="graph" transform="scale(1 1) rotate(0) translate(4 286)">
<title>marianne.shop_csv_exclusion_heading</title>
<polygon fill="white" stroke="none" points="-4,4 -4,-286 517.32,-286 517.32,4 -4,4"/>
<!-- marianne.shop_csv_exclusion_heading -->
<g id="node1" class="node">
<title>marianne.shop_csv_exclusion_heading</title>
<polygon fill="#efefef" stroke="none" points="46.2,-200.2 46.2,-235.8 467.12,-235.8 467.12,-200.2 46.2,-200.2"/>
<polygon fill="none" stroke="black" points="46.2,-200.2 46.2,-235.8 467.12,-235.8 467.12,-200.2 46.2,-200.2"/>
<text text-anchor="start" x="53.2" y="-213.6" font-family="Arial Bold" font-size="18.00">marianne.shop_csv_exclusion_heading</text>
<text text-anchor="start" x="335.63" y="-213.6" font-family="Arial" font-size="14.00">    </text>
<text text-anchor="start" x="366.74" y="-213.6" font-family="Arial" font-size="14.00" fill="#666666">[BASE TABLE]</text>
<polygon fill="none" stroke="black" points="46.2,-169.4 46.2,-200.2 467.12,-200.2 467.12,-169.4 46.2,-169.4"/>
<text text-anchor="start" x="53.2" y="-181.6" font-family="Arial" font-size="14.00">shop_code </text>
<text text-anchor="start" x="125.59" y="-181.6" font-family="Arial" font-size="14.00" fill="#666666">[character(10)]</text>
<polygon fill="none" stroke="black" points="46.2,-138.6 46.2,-169.4 467.12,-169.4 467.12,-138.6 46.2,-138.6"/>
<text text-anchor="start" x="53.2" y="-150.8" font-family="Arial" font-size="14.00">format_type </text>
<text text-anchor="start" x="131.01" y="-150.8" font-family="Arial" font-size="14.00" fill="#666666">[smallint]</text>
<polygon fill="none" stroke="black" points="46.2,-107.8 46.2,-138.6 467.12,-138.6 467.12,-107.8 46.2,-107.8"/>
<text text-anchor="start" x="53.2" y="-120" font-family="Arial" font-size="14.00">shop_header_name </text>
<text text-anchor="start" x="181.63" y="-120" font-family="Arial" font-size="14.00" fill="#666666">[varchar(50)]</text>
<polygon fill="none" stroke="black" points="46.2,-77 46.2,-107.8 467.12,-107.8 467.12,-77 46.2,-77"/>
<text text-anchor="start" x="53.2" y="-89.2" font-family="Arial" font-size="14.00">created_at </text>
<text text-anchor="start" x="123.25" y="-89.2" font-family="Arial" font-size="14.00" fill="#666666">[timestamp without time zone]</text>
<polygon fill="none" stroke="black" points="46.2,-46.2 46.2,-77 467.12,-77 467.12,-46.2 46.2,-46.2"/>
<text text-anchor="start" x="53.2" y="-58.4" font-family="Arial" font-size="14.00">created_by </text>
<text text-anchor="start" x="126.36" y="-58.4" font-family="Arial" font-size="14.00" fill="#666666">[varchar(10)]</text>
<polygon fill="none" stroke="black" stroke-width="3" points="44.7,-44.7 44.7,-237.3 468.62,-237.3 468.62,-44.7 44.7,-44.7"/>
</g>
</g>
</svg>
