<?xml version="1.0" encoding="UTF-8" standalone="no"?>
<!DOCTYPE svg PUBLIC "-//W3C//DTD SVG 1.1//EN"
 "http://www.w3.org/Graphics/SVG/1.1/DTD/svg11.dtd">
<!-- Generated by graphviz version 12.1.2 (20240928.0832)
 -->
<!-- Title: marianne.csv_uploads Pages: 1 -->
<svg width="617pt" height="1002pt"
 viewBox="0.00 0.00 616.54 1002.40" xmlns="http://www.w3.org/2000/svg" xmlns:xlink="http://www.w3.org/1999/xlink">
<g id="graph0" class="graph" transform="scale(1 1) rotate(0) translate(4 998.4)">
<title>marianne.csv_uploads</title>
<polygon fill="white" stroke="none" points="-4,4 -4,-998.4 612.54,-998.4 612.54,4 -4,4"/>
<!-- marianne.csv_uploads -->
<g id="node1" class="node">
<title>marianne.csv_uploads</title>
<polygon fill="#efefef" stroke="none" points="46.2,-912.6 46.2,-948.2 345.14,-948.2 345.14,-912.6 46.2,-912.6"/>
<polygon fill="none" stroke="black" points="46.2,-912.6 46.2,-948.2 345.14,-948.2 345.14,-912.6 46.2,-912.6"/>
<text text-anchor="start" x="53.2" y="-926" font-family="Arial Bold" font-size="18.00">marianne.csv_uploads</text>
<text text-anchor="start" x="213.65" y="-926" font-family="Arial" font-size="14.00">    </text>
<text text-anchor="start" x="244.77" y="-926" font-family="Arial" font-size="14.00" fill="#666666">[BASE TABLE]</text>
<polygon fill="none" stroke="black" points="46.2,-881.8 46.2,-912.6 345.14,-912.6 345.14,-881.8 46.2,-881.8"/>
<text text-anchor="start" x="53.2" y="-894" font-family="Arial" font-size="14.00">id </text>
<text text-anchor="start" x="67.99" y="-894" font-family="Arial" font-size="14.00" fill="#666666">[uuid]</text>
<polygon fill="none" stroke="black" points="46.2,-851 46.2,-881.8 345.14,-881.8 345.14,-851 46.2,-851"/>
<text text-anchor="start" x="53.2" y="-863.2" font-family="Arial" font-size="14.00">user_id </text>
<text text-anchor="start" x="103.01" y="-863.2" font-family="Arial" font-size="14.00" fill="#666666">[varchar(10)]</text>
<polygon fill="none" stroke="black" points="46.2,-820.2 46.2,-851 345.14,-851 345.14,-820.2 46.2,-820.2"/>
<text text-anchor="start" x="53.2" y="-832.4" font-family="Arial" font-size="14.00">contact_user_name </text>
<text text-anchor="start" x="180.05" y="-832.4" font-family="Arial" font-size="14.00" fill="#666666">[varchar(50)]</text>
<polygon fill="none" stroke="black" points="46.2,-789.4 46.2,-820.2 345.14,-820.2 345.14,-789.4 46.2,-789.4"/>
<text text-anchor="start" x="53.2" y="-801.6" font-family="Arial" font-size="14.00">contact_user_email </text>
<text text-anchor="start" x="178.49" y="-801.6" font-family="Arial" font-size="14.00" fill="#666666">[varchar(100)]</text>
<polygon fill="none" stroke="black" points="46.2,-758.6 46.2,-789.4 345.14,-789.4 345.14,-758.6 46.2,-758.6"/>
<text text-anchor="start" x="53.2" y="-770.8" font-family="Arial" font-size="14.00">shop_code </text>
<text text-anchor="start" x="125.59" y="-770.8" font-family="Arial" font-size="14.00" fill="#666666">[varchar(10)]</text>
<polygon fill="none" stroke="black" points="46.2,-727.8 46.2,-758.6 345.14,-758.6 345.14,-727.8 46.2,-727.8"/>
<text text-anchor="start" x="53.2" y="-740" font-family="Arial" font-size="14.00">status </text>
<text text-anchor="start" x="94.44" y="-740" font-family="Arial" font-size="14.00" fill="#666666">[smallint]</text>
<polygon fill="none" stroke="black" points="46.2,-697 46.2,-727.8 345.14,-727.8 345.14,-697 46.2,-697"/>
<text text-anchor="start" x="53.2" y="-709.2" font-family="Arial" font-size="14.00">upload_bucket_name </text>
<text text-anchor="start" x="190.97" y="-709.2" font-family="Arial" font-size="14.00" fill="#666666">[varchar(100)]</text>
<polygon fill="none" stroke="black" points="46.2,-666.2 46.2,-697 345.14,-697 345.14,-666.2 46.2,-666.2"/>
<text text-anchor="start" x="53.2" y="-678.4" font-family="Arial" font-size="14.00">error_bucket_name </text>
<text text-anchor="start" x="178.49" y="-678.4" font-family="Arial" font-size="14.00" fill="#666666">[varchar(100)]</text>
<polygon fill="none" stroke="black" points="46.2,-635.4 46.2,-666.2 345.14,-666.2 345.14,-635.4 46.2,-635.4"/>
<text text-anchor="start" x="53.2" y="-647.6" font-family="Arial" font-size="14.00">upload_file_key </text>
<text text-anchor="start" x="154.39" y="-647.6" font-family="Arial" font-size="14.00" fill="#666666">[varchar(100)]</text>
<polygon fill="none" stroke="black" points="46.2,-604.6 46.2,-635.4 345.14,-635.4 345.14,-604.6 46.2,-604.6"/>
<text text-anchor="start" x="53.2" y="-616.8" font-family="Arial" font-size="14.00">error_file_key </text>
<text text-anchor="start" x="141.9" y="-616.8" font-family="Arial" font-size="14.00" fill="#666666">[varchar(100)]</text>
<polygon fill="none" stroke="black" points="46.2,-573.8 46.2,-604.6 345.14,-604.6 345.14,-573.8 46.2,-573.8"/>
<text text-anchor="start" x="53.2" y="-586" font-family="Arial" font-size="14.00">upload_file_name </text>
<text text-anchor="start" x="167.62" y="-586" font-family="Arial" font-size="14.00" fill="#666666">[varchar(100)]</text>
<polygon fill="none" stroke="black" points="46.2,-543 46.2,-573.8 345.14,-573.8 345.14,-543 46.2,-543"/>
<text text-anchor="start" x="53.2" y="-555.2" font-family="Arial" font-size="14.00">error_file_name </text>
<text text-anchor="start" x="155.14" y="-555.2" font-family="Arial" font-size="14.00" fill="#666666">[varchar(100)]</text>
<polygon fill="none" stroke="black" points="46.2,-512.2 46.2,-543 345.14,-543 345.14,-512.2 46.2,-512.2"/>
<text text-anchor="start" x="53.2" y="-524.4" font-family="Arial" font-size="14.00">upload_type </text>
<text text-anchor="start" x="133.38" y="-524.4" font-family="Arial" font-size="14.00" fill="#666666">[smallint]</text>
<polygon fill="none" stroke="black" points="46.2,-481.4 46.2,-512.2 345.14,-512.2 345.14,-481.4 46.2,-481.4"/>
<text text-anchor="start" x="53.2" y="-493.6" font-family="Arial" font-size="14.00">transaction_amount </text>
<text text-anchor="start" x="180.05" y="-493.6" font-family="Arial" font-size="14.00" fill="#666666">[integer]</text>
<polygon fill="none" stroke="black" points="46.2,-450.6 46.2,-481.4 345.14,-481.4 345.14,-450.6 46.2,-450.6"/>
<text text-anchor="start" x="53.2" y="-462.8" font-family="Arial" font-size="14.00">transaction_count </text>
<text text-anchor="start" x="167.61" y="-462.8" font-family="Arial" font-size="14.00" fill="#666666">[integer]</text>
<polygon fill="none" stroke="black" points="46.2,-419.8 46.2,-450.6 345.14,-450.6 345.14,-419.8 46.2,-419.8"/>
<text text-anchor="start" x="53.2" y="-432" font-family="Arial" font-size="14.00">error_code </text>
<text text-anchor="start" x="124.79" y="-432" font-family="Arial" font-size="14.00" fill="#666666">[smallint]</text>
<polygon fill="none" stroke="black" points="46.2,-389 46.2,-419.8 345.14,-419.8 345.14,-389 46.2,-389"/>
<text text-anchor="start" x="53.2" y="-401.2" font-family="Arial" font-size="14.00">created_at </text>
<text text-anchor="start" x="123.25" y="-401.2" font-family="Arial" font-size="14.00" fill="#666666">[timestamp without time zone]</text>
<polygon fill="none" stroke="black" points="46.2,-358.2 46.2,-389 345.14,-389 345.14,-358.2 46.2,-358.2"/>
<text text-anchor="start" x="53.2" y="-370.4" font-family="Arial" font-size="14.00">updated_at </text>
<text text-anchor="start" x="127.16" y="-370.4" font-family="Arial" font-size="14.00" fill="#666666">[timestamp without time zone]</text>
<polygon fill="none" stroke="black" points="46.2,-327.4 46.2,-358.2 345.14,-358.2 345.14,-327.4 46.2,-327.4"/>
<text text-anchor="start" x="53.2" y="-339.6" font-family="Arial" font-size="14.00">buyer_count </text>
<text text-anchor="start" x="134.14" y="-339.6" font-family="Arial" font-size="14.00" fill="#666666">[integer]</text>
<polygon fill="none" stroke="black" stroke-width="3" points="44.7,-325.9 44.7,-949.7 346.64,-949.7 346.64,-325.9 44.7,-325.9"/>
</g>
<!-- marianne.users -->
<g id="node2" class="node">
<title>marianne.users</title>
<polygon fill="#efefef" stroke="none" points="61.05,-166.4 61.05,-202 330.29,-202 330.29,-166.4 61.05,-166.4"/>
<polygon fill="none" stroke="black" points="61.05,-166.4 61.05,-202 330.29,-202 330.29,-166.4 61.05,-166.4"/>
<text text-anchor="start" x="79.2" y="-179.8" font-family="Arial Bold" font-size="18.00">marianne.users</text>
<text text-anchor="start" x="187.66" y="-179.8" font-family="Arial" font-size="14.00">    </text>
<text text-anchor="start" x="218.77" y="-179.8" font-family="Arial" font-size="14.00" fill="#666666">[BASE TABLE]</text>
<polygon fill="none" stroke="black" points="61.05,-135.6 61.05,-166.4 330.29,-166.4 330.29,-135.6 61.05,-135.6"/>
<text text-anchor="start" x="68.05" y="-147.8" font-family="Arial" font-size="14.00">user_id </text>
<text text-anchor="start" x="117.86" y="-147.8" font-family="Arial" font-size="14.00" fill="#666666">[varchar(10)]</text>
<polygon fill="none" stroke="black" points="61.05,-104.8 61.05,-135.6 330.29,-135.6 330.29,-104.8 61.05,-104.8"/>
<text text-anchor="start" x="68.05" y="-117" font-family="Arial" font-size="14.00">cognito_user_id </text>
<text text-anchor="start" x="170.79" y="-117" font-family="Arial" font-size="14.00" fill="#666666">[uuid]</text>
<polygon fill="none" stroke="black" points="61.05,-74 61.05,-104.8 330.29,-104.8 330.29,-74 61.05,-74"/>
<text text-anchor="start" x="68.05" y="-86.2" font-family="Arial" font-size="14.00">email </text>
<text text-anchor="start" x="105.4" y="-86.2" font-family="Arial" font-size="14.00" fill="#666666">[varchar(255)]</text>
<polygon fill="none" stroke="black" points="61.05,-43.2 61.05,-74 330.29,-74 330.29,-43.2 61.05,-43.2"/>
<text text-anchor="start" x="68.05" y="-55.4" font-family="Arial" font-size="14.00">created_at </text>
<text text-anchor="start" x="138.1" y="-55.4" font-family="Arial" font-size="14.00" fill="#666666">[timestamp without time zone]</text>
</g>
<!-- marianne.csv_uploads&#45;&gt;marianne.users -->
<g id="edge1" class="edge">
<title>marianne.csv_uploads:user_id&#45;&gt;marianne.users:user_id</title>
<path fill="none" stroke="black" d="M355.45,-862.89C424.32,-808.92 407.53,-151 331.29,-151"/>
<polygon fill="black" stroke="black" points="355.81,-862.75 344.87,-862.07 350.82,-864.64 346.77,-866.16 346.77,-866.16 346.77,-866.16 350.82,-864.64 348.04,-870.49 355.81,-862.75"/>
<text text-anchor="start" x="353.14" y="-876.4" font-family="Arial" font-size="10.00">FOREIGN KEY (user_id) REFERENCES users(user_id)</text>
</g>
</g>
</svg>
