<?xml version="1.0" encoding="UTF-8" standalone="no"?>
<!DOCTYPE svg PUBLIC "-//W3C//DTD SVG 1.1//EN"
 "http://www.w3.org/Graphics/SVG/1.1/DTD/svg11.dtd">
<!-- Generated by graphviz version 12.1.2 (20240928.0832)
 -->
<!-- Title: npdb Pages: 1 -->
<svg width="3130pt" height="996pt"
 viewBox="0.00 0.00 3129.81 996.40" xmlns="http://www.w3.org/2000/svg" xmlns:xlink="http://www.w3.org/1999/xlink">
<g id="graph0" class="graph" transform="scale(1 1) rotate(0) translate(4 992.4)">
<title>npdb</title>
<polygon fill="white" stroke="none" points="-4,4 -4,-992.4 3125.81,-992.4 3125.81,4 -4,4"/>
<!-- marianne.flyway_schema_history -->
<g id="node1" class="node">
<title>marianne.flyway_schema_history</title>
<polygon fill="#efefef" stroke="none" points="43.2,-771 43.2,-806.6 425.11,-806.6 425.11,-771 43.2,-771"/>
<polygon fill="none" stroke="black" points="43.2,-771 43.2,-806.6 425.11,-806.6 425.11,-771 43.2,-771"/>
<text text-anchor="start" x="50.2" y="-784.4" font-family="Arial Bold" font-size="18.00">marianne.flyway_schema_history</text>
<text text-anchor="start" x="293.62" y="-784.4" font-family="Arial" font-size="14.00">    </text>
<text text-anchor="start" x="324.74" y="-784.4" font-family="Arial" font-size="14.00" fill="#666666">[BASE TABLE]</text>
<polygon fill="none" stroke="black" points="43.2,-740.2 43.2,-771 425.11,-771 425.11,-740.2 43.2,-740.2"/>
<text text-anchor="start" x="50.2" y="-752.4" font-family="Arial" font-size="14.00">installed_rank </text>
<text text-anchor="start" x="140.48" y="-752.4" font-family="Arial" font-size="14.00" fill="#666666">[integer]</text>
<polygon fill="none" stroke="black" points="43.2,-709.4 43.2,-740.2 425.11,-740.2 425.11,-709.4 43.2,-709.4"/>
<text text-anchor="start" x="50.2" y="-721.6" font-family="Arial" font-size="14.00">version </text>
<text text-anchor="start" x="99.22" y="-721.6" font-family="Arial" font-size="14.00" fill="#666666">[varchar(50)]</text>
<polygon fill="none" stroke="black" points="43.2,-678.6 43.2,-709.4 425.11,-709.4 425.11,-678.6 43.2,-678.6"/>
<text text-anchor="start" x="50.2" y="-690.8" font-family="Arial" font-size="14.00">description </text>
<text text-anchor="start" x="121.79" y="-690.8" font-family="Arial" font-size="14.00" fill="#666666">[varchar(200)]</text>
<polygon fill="none" stroke="black" points="43.2,-647.8 43.2,-678.6 425.11,-678.6 425.11,-647.8 43.2,-647.8"/>
<text text-anchor="start" x="50.2" y="-660" font-family="Arial" font-size="14.00">type </text>
<text text-anchor="start" x="80.55" y="-660" font-family="Arial" font-size="14.00" fill="#666666">[varchar(20)]</text>
<polygon fill="none" stroke="black" points="43.2,-617 43.2,-647.8 425.11,-647.8 425.11,-617 43.2,-617"/>
<text text-anchor="start" x="50.2" y="-629.2" font-family="Arial" font-size="14.00">script </text>
<text text-anchor="start" x="87.54" y="-629.2" font-family="Arial" font-size="14.00" fill="#666666">[varchar(1000)]</text>
<polygon fill="none" stroke="black" points="43.2,-586.2 43.2,-617 425.11,-617 425.11,-586.2 43.2,-586.2"/>
<text text-anchor="start" x="50.2" y="-598.4" font-family="Arial" font-size="14.00">checksum </text>
<text text-anchor="start" x="117.11" y="-598.4" font-family="Arial" font-size="14.00" fill="#666666">[integer]</text>
<polygon fill="none" stroke="black" points="43.2,-555.4 43.2,-586.2 425.11,-586.2 425.11,-555.4 43.2,-555.4"/>
<text text-anchor="start" x="50.2" y="-567.6" font-family="Arial" font-size="14.00">installed_by </text>
<text text-anchor="start" x="128.03" y="-567.6" font-family="Arial" font-size="14.00" fill="#666666">[varchar(100)]</text>
<polygon fill="none" stroke="black" points="43.2,-524.6 43.2,-555.4 425.11,-555.4 425.11,-524.6 43.2,-524.6"/>
<text text-anchor="start" x="50.2" y="-536.8" font-family="Arial" font-size="14.00">installed_on </text>
<text text-anchor="start" x="128.81" y="-536.8" font-family="Arial" font-size="14.00" fill="#666666">[timestamp without time zone]</text>
<polygon fill="none" stroke="black" points="43.2,-493.8 43.2,-524.6 425.11,-524.6 425.11,-493.8 43.2,-493.8"/>
<text text-anchor="start" x="50.2" y="-506" font-family="Arial" font-size="14.00">execution_time </text>
<text text-anchor="start" x="148.25" y="-506" font-family="Arial" font-size="14.00" fill="#666666">[integer]</text>
<polygon fill="none" stroke="black" points="43.2,-463 43.2,-493.8 425.11,-493.8 425.11,-463 43.2,-463"/>
<text text-anchor="start" x="50.2" y="-475.2" font-family="Arial" font-size="14.00">success </text>
<text text-anchor="start" x="104.66" y="-475.2" font-family="Arial" font-size="14.00" fill="#666666">[boolean]</text>
</g>
<!-- marianne.users -->
<g id="node2" class="node">
<title>marianne.users</title>
<polygon fill="#efefef" stroke="none" points="1152.54,-166.4 1152.54,-202 1421.77,-202 1421.77,-166.4 1152.54,-166.4"/>
<polygon fill="none" stroke="black" points="1152.54,-166.4 1152.54,-202 1421.77,-202 1421.77,-166.4 1152.54,-166.4"/>
<text text-anchor="start" x="1170.68" y="-179.8" font-family="Arial Bold" font-size="18.00">marianne.users</text>
<text text-anchor="start" x="1279.14" y="-179.8" font-family="Arial" font-size="14.00">    </text>
<text text-anchor="start" x="1310.26" y="-179.8" font-family="Arial" font-size="14.00" fill="#666666">[BASE TABLE]</text>
<polygon fill="none" stroke="black" points="1152.54,-135.6 1152.54,-166.4 1421.77,-166.4 1421.77,-135.6 1152.54,-135.6"/>
<text text-anchor="start" x="1159.54" y="-147.8" font-family="Arial" font-size="14.00">user_id </text>
<text text-anchor="start" x="1209.35" y="-147.8" font-family="Arial" font-size="14.00" fill="#666666">[varchar(10)]</text>
<polygon fill="none" stroke="black" points="1152.54,-104.8 1152.54,-135.6 1421.77,-135.6 1421.77,-104.8 1152.54,-104.8"/>
<text text-anchor="start" x="1159.54" y="-117" font-family="Arial" font-size="14.00">cognito_user_id </text>
<text text-anchor="start" x="1262.28" y="-117" font-family="Arial" font-size="14.00" fill="#666666">[uuid]</text>
<polygon fill="none" stroke="black" points="1152.54,-74 1152.54,-104.8 1421.77,-104.8 1421.77,-74 1152.54,-74"/>
<text text-anchor="start" x="1159.54" y="-86.2" font-family="Arial" font-size="14.00">email </text>
<text text-anchor="start" x="1196.88" y="-86.2" font-family="Arial" font-size="14.00" fill="#666666">[varchar(255)]</text>
<polygon fill="none" stroke="black" points="1152.54,-43.2 1152.54,-74 1421.77,-74 1421.77,-43.2 1152.54,-43.2"/>
<text text-anchor="start" x="1159.54" y="-55.4" font-family="Arial" font-size="14.00">created_at </text>
<text text-anchor="start" x="1229.59" y="-55.4" font-family="Arial" font-size="14.00" fill="#666666">[timestamp without time zone]</text>
</g>
<!-- marianne.user_shops -->
<g id="node3" class="node">
<title>marianne.user_shops</title>
<polygon fill="#efefef" stroke="none" points="529.18,-663.2 529.18,-698.8 819.13,-698.8 819.13,-663.2 529.18,-663.2"/>
<polygon fill="none" stroke="black" points="529.18,-663.2 529.18,-698.8 819.13,-698.8 819.13,-663.2 529.18,-663.2"/>
<text text-anchor="start" x="536.18" y="-676.6" font-family="Arial Bold" font-size="18.00">marianne.user_shops</text>
<text text-anchor="start" x="687.64" y="-676.6" font-family="Arial" font-size="14.00">    </text>
<text text-anchor="start" x="718.76" y="-676.6" font-family="Arial" font-size="14.00" fill="#666666">[BASE TABLE]</text>
<polygon fill="none" stroke="black" points="529.18,-632.4 529.18,-663.2 819.13,-663.2 819.13,-632.4 529.18,-632.4"/>
<text text-anchor="start" x="536.18" y="-644.6" font-family="Arial" font-size="14.00">user_id </text>
<text text-anchor="start" x="585.99" y="-644.6" font-family="Arial" font-size="14.00" fill="#666666">[varchar(10)]</text>
<polygon fill="none" stroke="black" points="529.18,-601.6 529.18,-632.4 819.13,-632.4 819.13,-601.6 529.18,-601.6"/>
<text text-anchor="start" x="536.18" y="-613.8" font-family="Arial" font-size="14.00">shop_code </text>
<text text-anchor="start" x="608.57" y="-613.8" font-family="Arial" font-size="14.00" fill="#666666">[character(10)]</text>
<polygon fill="none" stroke="black" points="529.18,-570.8 529.18,-601.6 819.13,-601.6 819.13,-570.8 529.18,-570.8"/>
<text text-anchor="start" x="536.18" y="-583" font-family="Arial" font-size="14.00">created_at </text>
<text text-anchor="start" x="606.23" y="-583" font-family="Arial" font-size="14.00" fill="#666666">[timestamp without time zone]</text>
</g>
<!-- marianne.user_shops&#45;&gt;marianne.users -->
<g id="edge1" class="edge">
<title>marianne.user_shops:user_id&#45;&gt;marianne.users:user_id</title>
<path fill="none" stroke="black" d="M830.26,-646.03C895.44,-621.28 824.42,-344.34 871.16,-281.2 952.9,-170.76 1014.14,-151 1151.54,-151"/>
<polygon fill="black" stroke="black" points="830.31,-646.02 819.69,-643.31 825.06,-646.94 820.79,-647.68 820.79,-647.68 820.79,-647.68 825.06,-646.94 821.24,-652.18 830.31,-646.02"/>
<text text-anchor="start" x="827.13" y="-657.8" font-family="Arial" font-size="10.00">FOREIGN KEY (user_id) REFERENCES users(user_id)</text>
</g>
<!-- marianne.csv_uploads -->
<g id="node4" class="node">
<title>marianne.csv_uploads</title>
<polygon fill="#efefef" stroke="none" points="923.68,-909.6 923.68,-945.2 1222.63,-945.2 1222.63,-909.6 923.68,-909.6"/>
<polygon fill="none" stroke="black" points="923.68,-909.6 923.68,-945.2 1222.63,-945.2 1222.63,-909.6 923.68,-909.6"/>
<text text-anchor="start" x="930.68" y="-923" font-family="Arial Bold" font-size="18.00">marianne.csv_uploads</text>
<text text-anchor="start" x="1091.14" y="-923" font-family="Arial" font-size="14.00">    </text>
<text text-anchor="start" x="1122.25" y="-923" font-family="Arial" font-size="14.00" fill="#666666">[BASE TABLE]</text>
<polygon fill="none" stroke="black" points="923.68,-878.8 923.68,-909.6 1222.63,-909.6 1222.63,-878.8 923.68,-878.8"/>
<text text-anchor="start" x="930.68" y="-891" font-family="Arial" font-size="14.00">id </text>
<text text-anchor="start" x="945.47" y="-891" font-family="Arial" font-size="14.00" fill="#666666">[uuid]</text>
<polygon fill="none" stroke="black" points="923.68,-848 923.68,-878.8 1222.63,-878.8 1222.63,-848 923.68,-848"/>
<text text-anchor="start" x="930.68" y="-860.2" font-family="Arial" font-size="14.00">user_id </text>
<text text-anchor="start" x="980.49" y="-860.2" font-family="Arial" font-size="14.00" fill="#666666">[varchar(10)]</text>
<polygon fill="none" stroke="black" points="923.68,-817.2 923.68,-848 1222.63,-848 1222.63,-817.2 923.68,-817.2"/>
<text text-anchor="start" x="930.68" y="-829.4" font-family="Arial" font-size="14.00">contact_user_name </text>
<text text-anchor="start" x="1057.54" y="-829.4" font-family="Arial" font-size="14.00" fill="#666666">[varchar(50)]</text>
<polygon fill="none" stroke="black" points="923.68,-786.4 923.68,-817.2 1222.63,-817.2 1222.63,-786.4 923.68,-786.4"/>
<text text-anchor="start" x="930.68" y="-798.6" font-family="Arial" font-size="14.00">contact_user_email </text>
<text text-anchor="start" x="1055.97" y="-798.6" font-family="Arial" font-size="14.00" fill="#666666">[varchar(100)]</text>
<polygon fill="none" stroke="black" points="923.68,-755.6 923.68,-786.4 1222.63,-786.4 1222.63,-755.6 923.68,-755.6"/>
<text text-anchor="start" x="930.68" y="-767.8" font-family="Arial" font-size="14.00">shop_code </text>
<text text-anchor="start" x="1003.08" y="-767.8" font-family="Arial" font-size="14.00" fill="#666666">[varchar(10)]</text>
<polygon fill="none" stroke="black" points="923.68,-724.8 923.68,-755.6 1222.63,-755.6 1222.63,-724.8 923.68,-724.8"/>
<text text-anchor="start" x="930.68" y="-737" font-family="Arial" font-size="14.00">status </text>
<text text-anchor="start" x="971.93" y="-737" font-family="Arial" font-size="14.00" fill="#666666">[smallint]</text>
<polygon fill="none" stroke="black" points="923.68,-694 923.68,-724.8 1222.63,-724.8 1222.63,-694 923.68,-694"/>
<text text-anchor="start" x="930.68" y="-706.2" font-family="Arial" font-size="14.00">upload_bucket_name </text>
<text text-anchor="start" x="1068.46" y="-706.2" font-family="Arial" font-size="14.00" fill="#666666">[varchar(100)]</text>
<polygon fill="none" stroke="black" points="923.68,-663.2 923.68,-694 1222.63,-694 1222.63,-663.2 923.68,-663.2"/>
<text text-anchor="start" x="930.68" y="-675.4" font-family="Arial" font-size="14.00">error_bucket_name </text>
<text text-anchor="start" x="1055.97" y="-675.4" font-family="Arial" font-size="14.00" fill="#666666">[varchar(100)]</text>
<polygon fill="none" stroke="black" points="923.68,-632.4 923.68,-663.2 1222.63,-663.2 1222.63,-632.4 923.68,-632.4"/>
<text text-anchor="start" x="930.68" y="-644.6" font-family="Arial" font-size="14.00">upload_file_key </text>
<text text-anchor="start" x="1031.87" y="-644.6" font-family="Arial" font-size="14.00" fill="#666666">[varchar(100)]</text>
<polygon fill="none" stroke="black" points="923.68,-601.6 923.68,-632.4 1222.63,-632.4 1222.63,-601.6 923.68,-601.6"/>
<text text-anchor="start" x="930.68" y="-613.8" font-family="Arial" font-size="14.00">error_file_key </text>
<text text-anchor="start" x="1019.39" y="-613.8" font-family="Arial" font-size="14.00" fill="#666666">[varchar(100)]</text>
<polygon fill="none" stroke="black" points="923.68,-570.8 923.68,-601.6 1222.63,-601.6 1222.63,-570.8 923.68,-570.8"/>
<text text-anchor="start" x="930.68" y="-583" font-family="Arial" font-size="14.00">upload_file_name </text>
<text text-anchor="start" x="1045.1" y="-583" font-family="Arial" font-size="14.00" fill="#666666">[varchar(100)]</text>
<polygon fill="none" stroke="black" points="923.68,-540 923.68,-570.8 1222.63,-570.8 1222.63,-540 923.68,-540"/>
<text text-anchor="start" x="930.68" y="-552.2" font-family="Arial" font-size="14.00">error_file_name </text>
<text text-anchor="start" x="1032.62" y="-552.2" font-family="Arial" font-size="14.00" fill="#666666">[varchar(100)]</text>
<polygon fill="none" stroke="black" points="923.68,-509.2 923.68,-540 1222.63,-540 1222.63,-509.2 923.68,-509.2"/>
<text text-anchor="start" x="930.68" y="-521.4" font-family="Arial" font-size="14.00">upload_type </text>
<text text-anchor="start" x="1010.86" y="-521.4" font-family="Arial" font-size="14.00" fill="#666666">[smallint]</text>
<polygon fill="none" stroke="black" points="923.68,-478.4 923.68,-509.2 1222.63,-509.2 1222.63,-478.4 923.68,-478.4"/>
<text text-anchor="start" x="930.68" y="-490.6" font-family="Arial" font-size="14.00">transaction_amount </text>
<text text-anchor="start" x="1057.54" y="-490.6" font-family="Arial" font-size="14.00" fill="#666666">[integer]</text>
<polygon fill="none" stroke="black" points="923.68,-447.6 923.68,-478.4 1222.63,-478.4 1222.63,-447.6 923.68,-447.6"/>
<text text-anchor="start" x="930.68" y="-459.8" font-family="Arial" font-size="14.00">transaction_count </text>
<text text-anchor="start" x="1045.09" y="-459.8" font-family="Arial" font-size="14.00" fill="#666666">[integer]</text>
<polygon fill="none" stroke="black" points="923.68,-416.8 923.68,-447.6 1222.63,-447.6 1222.63,-416.8 923.68,-416.8"/>
<text text-anchor="start" x="930.68" y="-429" font-family="Arial" font-size="14.00">error_code </text>
<text text-anchor="start" x="1002.28" y="-429" font-family="Arial" font-size="14.00" fill="#666666">[smallint]</text>
<polygon fill="none" stroke="black" points="923.68,-386 923.68,-416.8 1222.63,-416.8 1222.63,-386 923.68,-386"/>
<text text-anchor="start" x="930.68" y="-398.2" font-family="Arial" font-size="14.00">created_at </text>
<text text-anchor="start" x="1000.73" y="-398.2" font-family="Arial" font-size="14.00" fill="#666666">[timestamp without time zone]</text>
<polygon fill="none" stroke="black" points="923.68,-355.2 923.68,-386 1222.63,-386 1222.63,-355.2 923.68,-355.2"/>
<text text-anchor="start" x="930.68" y="-367.4" font-family="Arial" font-size="14.00">updated_at </text>
<text text-anchor="start" x="1004.64" y="-367.4" font-family="Arial" font-size="14.00" fill="#666666">[timestamp without time zone]</text>
<polygon fill="none" stroke="black" points="923.68,-324.4 923.68,-355.2 1222.63,-355.2 1222.63,-324.4 923.68,-324.4"/>
<text text-anchor="start" x="930.68" y="-336.6" font-family="Arial" font-size="14.00">buyer_count </text>
<text text-anchor="start" x="1011.63" y="-336.6" font-family="Arial" font-size="14.00" fill="#666666">[integer]</text>
</g>
<!-- marianne.csv_uploads&#45;&gt;marianne.users -->
<g id="edge2" class="edge">
<title>marianne.csv_uploads:user_id&#45;&gt;marianne.users:user_id</title>
<path fill="none" stroke="black" d="M1233.07,-859.15C1284.94,-809.13 1254.6,-333.47 1222.63,-281.2 1204.35,-251.33 1170.95,-274.99 1152.54,-245.2 1130.53,-209.58 1109.67,-151 1151.54,-151"/>
<polygon fill="black" stroke="black" points="1233.05,-859.16 1222.08,-859.16 1228.19,-861.35 1224.24,-863.13 1224.24,-863.13 1224.24,-863.13 1228.19,-861.35 1225.78,-867.37 1233.05,-859.16"/>
<text text-anchor="start" x="1230.63" y="-873.4" font-family="Arial" font-size="10.00">FOREIGN KEY (user_id) REFERENCES users(user_id)</text>
</g>
<!-- marianne.shop_contact_users -->
<g id="node5" class="node">
<title>marianne.shop_contact_users</title>
<polygon fill="#efefef" stroke="none" points="1326.7,-663.2 1326.7,-698.8 1677.62,-698.8 1677.62,-663.2 1326.7,-663.2"/>
<polygon fill="none" stroke="black" points="1326.7,-663.2 1326.7,-698.8 1677.62,-698.8 1677.62,-663.2 1326.7,-663.2"/>
<text text-anchor="start" x="1333.7" y="-676.6" font-family="Arial Bold" font-size="18.00">marianne.shop_contact_users</text>
<text text-anchor="start" x="1546.13" y="-676.6" font-family="Arial" font-size="14.00">    </text>
<text text-anchor="start" x="1577.24" y="-676.6" font-family="Arial" font-size="14.00" fill="#666666">[BASE TABLE]</text>
<polygon fill="none" stroke="black" points="1326.7,-632.4 1326.7,-663.2 1677.62,-663.2 1677.62,-632.4 1326.7,-632.4"/>
<text text-anchor="start" x="1333.7" y="-644.6" font-family="Arial" font-size="14.00">shop_code </text>
<text text-anchor="start" x="1406.09" y="-644.6" font-family="Arial" font-size="14.00" fill="#666666">[character(10)]</text>
<polygon fill="none" stroke="black" points="1326.7,-601.6 1326.7,-632.4 1677.62,-632.4 1677.62,-601.6 1326.7,-601.6"/>
<text text-anchor="start" x="1333.7" y="-613.8" font-family="Arial" font-size="14.00">contact_code </text>
<text text-anchor="start" x="1420.87" y="-613.8" font-family="Arial" font-size="14.00" fill="#666666">[smallint]</text>
<polygon fill="none" stroke="black" points="1326.7,-570.8 1326.7,-601.6 1677.62,-601.6 1677.62,-570.8 1326.7,-570.8"/>
<text text-anchor="start" x="1333.7" y="-583" font-family="Arial" font-size="14.00">user_id </text>
<text text-anchor="start" x="1383.5" y="-583" font-family="Arial" font-size="14.00" fill="#666666">[varchar(20)]</text>
</g>
<!-- marianne.shop_contact_users&#45;&gt;marianne.users -->
<g id="edge3" class="edge">
<title>marianne.shop_contact_users:user_id&#45;&gt;marianne.users:user_id</title>
<path fill="none" stroke="black" d="M1315.37,-585.76C1145.59,-570.2 1617.27,-151 1422.77,-151"/>
<polygon fill="black" stroke="black" points="1315.37,-585.76 1325.17,-590.68 1320.7,-585.99 1325.03,-586.17 1325.03,-586.17 1325.03,-586.17 1320.7,-585.99 1325.55,-581.69 1315.37,-585.76"/>
<text text-anchor="start" x="1070.3" y="-596.2" font-family="Arial" font-size="10.00">FOREIGN KEY (user_id) REFERENCES users(user_id)</text>
</g>
<!-- marianne.user_invitations -->
<g id="node6" class="node">
<title>marianne.user_invitations</title>
<polygon fill="#efefef" stroke="none" points="1781.69,-709.4 1781.69,-745 2106.63,-745 2106.63,-709.4 1781.69,-709.4"/>
<polygon fill="none" stroke="black" points="1781.69,-709.4 1781.69,-745 2106.63,-745 2106.63,-709.4 1781.69,-709.4"/>
<text text-anchor="start" x="1788.69" y="-722.8" font-family="Arial Bold" font-size="18.00">marianne.user_invitations</text>
<text text-anchor="start" x="1975.14" y="-722.8" font-family="Arial" font-size="14.00">    </text>
<text text-anchor="start" x="2006.25" y="-722.8" font-family="Arial" font-size="14.00" fill="#666666">[BASE TABLE]</text>
<polygon fill="none" stroke="black" points="1781.69,-678.6 1781.69,-709.4 2106.63,-709.4 2106.63,-678.6 1781.69,-678.6"/>
<text text-anchor="start" x="1788.69" y="-690.8" font-family="Arial" font-size="14.00">user_id </text>
<text text-anchor="start" x="1838.49" y="-690.8" font-family="Arial" font-size="14.00" fill="#666666">[varchar(10)]</text>
<polygon fill="none" stroke="black" points="1781.69,-647.8 1781.69,-678.6 2106.63,-678.6 2106.63,-647.8 1781.69,-647.8"/>
<text text-anchor="start" x="1788.69" y="-660" font-family="Arial" font-size="14.00">shop_code </text>
<text text-anchor="start" x="1861.08" y="-660" font-family="Arial" font-size="14.00" fill="#666666">[character(10)]</text>
<polygon fill="none" stroke="black" points="1781.69,-617 1781.69,-647.8 2106.63,-647.8 2106.63,-617 1781.69,-617"/>
<text text-anchor="start" x="1788.69" y="-629.2" font-family="Arial" font-size="14.00">invite_code </text>
<text text-anchor="start" x="1863.4" y="-629.2" font-family="Arial" font-size="14.00" fill="#666666">[varchar(64)]</text>
<polygon fill="none" stroke="black" points="1781.69,-586.2 1781.69,-617 2106.63,-617 2106.63,-586.2 1781.69,-586.2"/>
<text text-anchor="start" x="1788.69" y="-598.4" font-family="Arial" font-size="14.00">contact_code </text>
<text text-anchor="start" x="1875.86" y="-598.4" font-family="Arial" font-size="14.00" fill="#666666">[smallint]</text>
<polygon fill="none" stroke="black" points="1781.69,-555.4 1781.69,-586.2 2106.63,-586.2 2106.63,-555.4 1781.69,-555.4"/>
<text text-anchor="start" x="1788.69" y="-567.6" font-family="Arial" font-size="14.00">invite_limit_at </text>
<text text-anchor="start" x="1877.39" y="-567.6" font-family="Arial" font-size="14.00" fill="#666666">[timestamp without time zone]</text>
<polygon fill="none" stroke="black" points="1781.69,-524.6 1781.69,-555.4 2106.63,-555.4 2106.63,-524.6 1781.69,-524.6"/>
<text text-anchor="start" x="1788.69" y="-536.8" font-family="Arial" font-size="14.00">send_mail_flag </text>
<text text-anchor="start" x="1886.75" y="-536.8" font-family="Arial" font-size="14.00" fill="#666666">[varchar(2)]</text>
</g>
<!-- marianne.user_invitations&#45;&gt;marianne.users -->
<g id="edge4" class="edge">
<title>marianne.user_invitations:user_id&#45;&gt;marianne.users:user_id</title>
<path fill="none" stroke="black" d="M1770.7,-692.48C1695.65,-667.92 1783.62,-352.11 1730.16,-281.2 1640.84,-162.73 1571.14,-151 1422.77,-151"/>
<polygon fill="black" stroke="black" points="1770.47,-692.45 1779.68,-698.4 1775.74,-693.25 1780.02,-693.9 1780.02,-693.9 1780.02,-693.9 1775.74,-693.25 1781.03,-689.5 1770.47,-692.45"/>
<text text-anchor="start" x="1525.29" y="-704" font-family="Arial" font-size="10.00">FOREIGN KEY (user_id) REFERENCES users(user_id)</text>
</g>
<!-- marianne.shop_csv_heading -->
<g id="node7" class="node">
<title>marianne.shop_csv_heading</title>
<polygon fill="#efefef" stroke="none" points="2210.69,-709.4 2210.69,-745 2553.62,-745 2553.62,-709.4 2210.69,-709.4"/>
<polygon fill="none" stroke="black" points="2210.69,-709.4 2210.69,-745 2553.62,-745 2553.62,-709.4 2210.69,-709.4"/>
<text text-anchor="start" x="2217.69" y="-722.8" font-family="Arial Bold" font-size="18.00">marianne.shop_csv_heading</text>
<text text-anchor="start" x="2422.13" y="-722.8" font-family="Arial" font-size="14.00">    </text>
<text text-anchor="start" x="2453.25" y="-722.8" font-family="Arial" font-size="14.00" fill="#666666">[BASE TABLE]</text>
<polygon fill="none" stroke="black" points="2210.69,-678.6 2210.69,-709.4 2553.62,-709.4 2553.62,-678.6 2210.69,-678.6"/>
<text text-anchor="start" x="2217.69" y="-690.8" font-family="Arial" font-size="14.00">shop_code </text>
<text text-anchor="start" x="2290.08" y="-690.8" font-family="Arial" font-size="14.00" fill="#666666">[character(10)]</text>
<polygon fill="none" stroke="black" points="2210.69,-647.8 2210.69,-678.6 2553.62,-678.6 2553.62,-647.8 2210.69,-647.8"/>
<text text-anchor="start" x="2217.69" y="-660" font-family="Arial" font-size="14.00">format_type </text>
<text text-anchor="start" x="2295.5" y="-660" font-family="Arial" font-size="14.00" fill="#666666">[smallint]</text>
<polygon fill="none" stroke="black" points="2210.69,-617 2210.69,-647.8 2553.62,-647.8 2553.62,-617 2210.69,-617"/>
<text text-anchor="start" x="2217.69" y="-629.2" font-family="Arial" font-size="14.00">np_header_id </text>
<text text-anchor="start" x="2307.21" y="-629.2" font-family="Arial" font-size="14.00" fill="#666666">[varchar(50)]</text>
<polygon fill="none" stroke="black" points="2210.69,-586.2 2210.69,-617 2553.62,-617 2553.62,-586.2 2210.69,-586.2"/>
<text text-anchor="start" x="2217.69" y="-598.4" font-family="Arial" font-size="14.00">shop_header_name </text>
<text text-anchor="start" x="2346.12" y="-598.4" font-family="Arial" font-size="14.00" fill="#666666">[varchar(50)]</text>
<polygon fill="none" stroke="black" points="2210.69,-555.4 2210.69,-586.2 2553.62,-586.2 2553.62,-555.4 2210.69,-555.4"/>
<text text-anchor="start" x="2217.69" y="-567.6" font-family="Arial" font-size="14.00">created_at </text>
<text text-anchor="start" x="2287.74" y="-567.6" font-family="Arial" font-size="14.00" fill="#666666">[timestamp without time zone]</text>
<polygon fill="none" stroke="black" points="2210.69,-524.6 2210.69,-555.4 2553.62,-555.4 2553.62,-524.6 2210.69,-524.6"/>
<text text-anchor="start" x="2217.69" y="-536.8" font-family="Arial" font-size="14.00">created_by </text>
<text text-anchor="start" x="2290.85" y="-536.8" font-family="Arial" font-size="14.00" fill="#666666">[varchar(10)]</text>
</g>
<!-- marianne.shop_csv_exclusion_heading -->
<g id="node8" class="node">
<title>marianne.shop_csv_exclusion_heading</title>
<polygon fill="#efefef" stroke="none" points="2657.7,-694 2657.7,-729.6 3078.61,-729.6 3078.61,-694 2657.7,-694"/>
<polygon fill="none" stroke="black" points="2657.7,-694 2657.7,-729.6 3078.61,-729.6 3078.61,-694 2657.7,-694"/>
<text text-anchor="start" x="2664.7" y="-707.4" font-family="Arial Bold" font-size="18.00">marianne.shop_csv_exclusion_heading</text>
<text text-anchor="start" x="2947.12" y="-707.4" font-family="Arial" font-size="14.00">    </text>
<text text-anchor="start" x="2978.24" y="-707.4" font-family="Arial" font-size="14.00" fill="#666666">[BASE TABLE]</text>
<polygon fill="none" stroke="black" points="2657.7,-663.2 2657.7,-694 3078.61,-694 3078.61,-663.2 2657.7,-663.2"/>
<text text-anchor="start" x="2664.7" y="-675.4" font-family="Arial" font-size="14.00">shop_code </text>
<text text-anchor="start" x="2737.09" y="-675.4" font-family="Arial" font-size="14.00" fill="#666666">[character(10)]</text>
<polygon fill="none" stroke="black" points="2657.7,-632.4 2657.7,-663.2 3078.61,-663.2 3078.61,-632.4 2657.7,-632.4"/>
<text text-anchor="start" x="2664.7" y="-644.6" font-family="Arial" font-size="14.00">format_type </text>
<text text-anchor="start" x="2742.51" y="-644.6" font-family="Arial" font-size="14.00" fill="#666666">[smallint]</text>
<polygon fill="none" stroke="black" points="2657.7,-601.6 2657.7,-632.4 3078.61,-632.4 3078.61,-601.6 2657.7,-601.6"/>
<text text-anchor="start" x="2664.7" y="-613.8" font-family="Arial" font-size="14.00">shop_header_name </text>
<text text-anchor="start" x="2793.13" y="-613.8" font-family="Arial" font-size="14.00" fill="#666666">[varchar(50)]</text>
<polygon fill="none" stroke="black" points="2657.7,-570.8 2657.7,-601.6 3078.61,-601.6 3078.61,-570.8 2657.7,-570.8"/>
<text text-anchor="start" x="2664.7" y="-583" font-family="Arial" font-size="14.00">created_at </text>
<text text-anchor="start" x="2734.74" y="-583" font-family="Arial" font-size="14.00" fill="#666666">[timestamp without time zone]</text>
<polygon fill="none" stroke="black" points="2657.7,-540 2657.7,-570.8 3078.61,-570.8 3078.61,-540 2657.7,-540"/>
<text text-anchor="start" x="2664.7" y="-552.2" font-family="Arial" font-size="14.00">created_by </text>
<text text-anchor="start" x="2737.86" y="-552.2" font-family="Arial" font-size="14.00" fill="#666666">[varchar(10)]</text>
</g>
</g>
</svg>
